<svg width="81" height="61" viewBox="0 0 81 61" fill="none" xmlns="http://www.w3.org/2000/svg">
  <g id="Frame 5">
    <g id="Group 9">
      <path id="p121oNtfkg_1_"
        d="M22.234 11.1721C22.1583 12.4597 22.461 13.7473 23.18 15.3001C23.18 15.3001 25.0963 19.0943 28.7476 18C32.3988 16.9057 36.4411 15.9439 40.7009 15.9439C43.312 15.9439 45.6203 16.0575 45.8852 16.1332C46.3015 16.2847 46.3772 17.0043 46.3772 21.2838C46.3772 25.942 46.415 26.2828 47.0583 27.2296C48.1936 28.8959 48.5342 28.9717 55.6484 28.9717C61.1734 28.9717 62.233 28.9338 62.952 28.4793C63.0655 28.4036 63.4061 28.2142 63.7088 27.8355C64.6927 26.5858 64.4278 24.3514 63.179 23.2531C63.0655 23.1395 62.8763 22.988 62.4978 22.7986C61.8545 22.5335 60.9085 22.4957 58.0325 22.4578L54.7402 22.4199C54.2105 22.382 53.7185 22.0791 53.4915 21.6246C53.2266 21.0944 53.113 18.9357 53.0373 15.0728C53.0373 14.5805 53.4158 9.27852 52.1291 7.46069C51.7129 6.85474 51.1453 6.36242 51.1453 6.36242C51.1453 6.36242 50.4641 5.83222 49.6316 5.4535C46.5285 4.128 37.2194 4.3931 37.2194 4.3931C30.5592 4.58246 28.2887 3.97652 25.829 5.52924C25.2235 5.94583 23.5963 6.96836 22.7638 8.93767C22.6124 9.27852 22.3097 10.0738 22.234 11.1721Z"
        fill="#9EFE00" />
      <path id="Vector"
        d="M60.8328 13.558C64.5738 13.558 67.6065 10.5229 67.6065 6.77899C67.6065 3.03506 64.5738 0 60.8328 0C57.0918 0 54.0591 3.03506 54.0591 6.77899C54.0591 10.5229 57.0918 13.558 60.8328 13.558Z"
        fill="#9EFE00" />
      <path id="Vector_2"
        d="M17.9957 29.9942C25.2992 29.9942 31.2025 35.94 31.2025 43.2113C31.2025 50.4826 25.2614 56.4284 17.9957 56.4284C10.73 56.4284 4.78884 50.5205 4.78884 43.2113C4.78884 35.9021 10.73 29.9942 17.9957 29.9942ZM17.9957 25.4496C8.19462 25.4496 0.247803 33.4026 0.247803 43.2113C0.247803 53.02 8.19462 60.973 17.9957 60.973C27.7968 60.973 35.7436 53.02 35.7436 43.2113C35.7436 33.4026 27.7968 25.4496 17.9957 25.4496Z"
        fill="#9EFE00" />
      <path id="Vector_3"
        d="M78.8456 36.1294C77.9374 34.0086 76.6508 32.0771 75.0236 30.4487C73.3964 28.8202 71.4664 27.5326 69.3473 26.6237C69.1202 26.5479 68.931 26.4343 68.704 26.3586C68.0228 26.0935 67.2281 26.2071 66.6227 26.6237C66.0172 27.0402 65.6388 27.7598 65.6388 28.5172C65.6388 29.464 66.2064 30.2972 67.1146 30.638C67.266 30.7138 67.4173 30.7516 67.5687 30.8274C69.1581 31.5091 70.5961 32.4559 71.807 33.6677C73.018 34.8796 74.0019 36.3187 74.683 37.9093C75.3642 39.5378 75.7426 41.2799 75.7426 43.0977C75.7426 44.9156 75.402 46.6576 74.683 48.2861C74.0019 49.8767 73.0558 51.3158 71.807 52.5277C70.5961 53.7396 69.1581 54.7243 67.5687 55.3681C65.9415 56.0498 64.2008 56.4285 62.3844 56.4285C60.5679 56.4285 58.8272 56.0876 57.2 55.3681C55.6107 54.6864 54.1727 53.7396 52.9617 52.4898C51.7508 51.278 50.7669 49.8388 50.1236 48.2482C49.4424 46.6198 49.064 44.8777 49.064 43.0599C49.064 41.242 49.4046 39.4999 50.1236 37.8715C50.6912 36.546 51.448 35.3341 52.3941 34.2737C52.9996 33.592 53.1131 32.6452 52.7725 31.8499C52.4319 31.0546 51.5994 30.5244 50.6912 30.5244H50.6533C50.01 30.5244 49.3667 30.7895 48.9505 31.2818C47.7017 32.721 46.6799 34.3494 45.9231 36.0915C44.9771 38.2881 44.5229 40.6361 44.5229 43.0599C44.5229 45.4836 45.0149 47.8317 45.9231 50.0282C46.8313 52.149 48.1179 54.0805 49.7451 55.7089C51.3723 57.3374 53.3023 58.6629 55.4214 59.5339C57.6163 60.4807 59.9625 60.9352 62.3844 60.9352C64.8063 60.9352 67.1525 60.4428 69.3473 59.5339C71.4664 58.625 73.3964 57.3374 75.0236 55.7089C76.6508 54.0805 77.9753 52.149 78.8456 50.0282C79.7917 47.8317 80.2458 45.4836 80.2458 43.0599C80.2836 40.674 79.7917 38.3259 78.8456 36.1294Z"
        fill="#9EFE00" />
    </g>
    <path id="back-leg"
      d="M25.6404 10.891C27.4298 10.3393 29.3243 11.2941 29.9588 13.0336L30.0164 13.2045L35.3553 30.519L35.4149 30.7387C35.4324 30.8121 35.448 30.8859 35.4607 30.9604L38.7059 49.9408C39.0317 51.8462 37.7509 53.6551 35.8455 53.9809C33.9403 54.3065 32.1322 53.0258 31.8065 51.1205L28.5984 32.3627L23.327 15.267L23.2781 15.0932C22.8231 13.2985 23.8511 11.4427 25.6404 10.891Z"
      fill="#9EFE00" fill-opacity="0.5" />
    <path id="front-leg"
      d="M39.6831 43.184C38.9612 44.9771 36.9216 45.8454 35.1285 45.1234C33.3357 44.4014 32.4673 42.3627 33.189 40.5697L38.3062 27.8568L24.5044 16.9848L24.3658 16.8705C22.971 15.6525 22.7626 13.5408 23.9214 12.0697C25.0802 10.599 27.1813 10.3078 28.6919 11.3783L28.8365 11.4867L44.6988 23.9828C45.92 24.9448 46.3603 26.5964 45.7798 28.0385L39.6831 43.184Z"
      fill="#9EFE00" />
  </g>
</svg>