<svg width="81" height="61" viewBox="0 0 81 61" fill="none" xmlns="http://www.w3.org/2000/svg">
  <g id="Frame 6">
    <g id="Group 10">
      <path id="p121oNtfkg_1_"
        d="M22.6187 11.1721C22.5431 12.4597 22.8458 13.7473 23.5648 15.3001C23.5648 15.3001 25.4811 19.0943 29.1323 18C32.7835 16.9057 36.8258 15.9439 41.0856 15.9439C43.6967 15.9439 46.0051 16.0575 46.27 16.1332C46.6862 16.2847 46.7619 17.0043 46.7619 21.2838C46.7619 25.942 46.7998 26.2828 47.4431 27.2296C48.5783 28.8959 48.9189 28.9717 56.0332 28.9717C61.5581 28.9717 62.6177 28.9338 63.3367 28.4793C63.4502 28.4036 63.7908 28.2142 64.0936 27.8355C65.0774 26.5858 64.8126 24.3514 63.5638 23.2531C63.4502 23.1395 63.261 22.988 62.8826 22.7986C62.2393 22.5335 61.2932 22.4957 58.4173 22.4578L55.125 22.4199C54.5952 22.382 54.1033 22.0791 53.8762 21.6246C53.6113 21.0944 53.4978 18.9357 53.4221 15.0728C53.4221 14.5805 53.8005 9.27852 52.5139 7.46069C52.0976 6.85474 51.53 6.36242 51.53 6.36242C51.53 6.36242 50.8489 5.83222 50.0163 5.4535C46.9133 4.128 37.6042 4.3931 37.6042 4.3931C30.944 4.58246 28.6735 3.97652 26.2137 5.52924C25.6083 5.94583 23.981 6.96836 23.1485 8.93767C22.9972 9.27852 22.6944 10.0738 22.6187 11.1721Z"
        fill="#9EFE00" />
      <path id="Vector"
        d="M61.2176 13.558C64.9586 13.558 67.9913 10.5229 67.9913 6.77899C67.9913 3.03506 64.9586 0 61.2176 0C57.4765 0 54.4438 3.03506 54.4438 6.77899C54.4438 10.5229 57.4765 13.558 61.2176 13.558Z"
        fill="#9EFE00" />
      <path id="Vector_2"
        d="M18.3802 29.9942C25.6837 29.9942 31.5871 35.94 31.5871 43.2113C31.5871 50.4826 25.6459 56.4284 18.3802 56.4284C11.1146 56.4284 5.17336 50.5205 5.17336 43.2113C5.17336 35.9021 11.1146 29.9942 18.3802 29.9942ZM18.3802 25.4496C8.57914 25.4496 0.632324 33.4026 0.632324 43.2113C0.632324 53.02 8.57914 60.973 18.3802 60.973C28.1813 60.973 36.1281 53.02 36.1281 43.2113C36.1281 33.4026 28.1813 25.4496 18.3802 25.4496Z"
        fill="#9EFE00" />
      <path id="Vector_3"
        d="M79.2299 36.1294C78.3217 34.0086 77.0351 32.0771 75.4079 30.4487C73.7807 28.8202 71.8507 27.5326 69.7316 26.6237C69.5045 26.5479 69.3153 26.4343 69.0883 26.3586C68.4071 26.0935 67.6124 26.2071 67.0069 26.6237C66.4015 27.0402 66.0231 27.7598 66.0231 28.5172C66.0231 29.464 66.5907 30.2972 67.4989 30.638C67.6503 30.7138 67.8016 30.7516 67.953 30.8274C69.5424 31.5091 70.9804 32.4559 72.1913 33.6677C73.4022 34.8796 74.3861 36.3187 75.0673 37.9093C75.7484 39.5378 76.1269 41.2799 76.1269 43.0977C76.1269 44.9156 75.7863 46.6576 75.0673 48.2861C74.3861 49.8767 73.4401 51.3158 72.1913 52.5277C70.9804 53.7396 69.5424 54.7243 67.953 55.3681C66.3258 56.0498 64.5851 56.4285 62.7686 56.4285C60.9522 56.4285 59.2115 56.0876 57.5843 55.3681C55.9949 54.6864 54.5569 53.7396 53.346 52.4898C52.135 51.278 51.1512 49.8388 50.5078 48.2482C49.8267 46.6198 49.4483 44.8777 49.4483 43.0599C49.4483 41.242 49.7888 39.4999 50.5078 37.8715C51.0755 36.546 51.8323 35.3341 52.7784 34.2737C53.3838 33.592 53.4974 32.6452 53.1568 31.8499C52.8162 31.0546 51.9837 30.5244 51.0755 30.5244H51.0376C50.3943 30.5244 49.751 30.7895 49.3347 31.2818C48.086 32.721 47.0642 34.3494 46.3074 36.0915C45.3613 38.2881 44.9072 40.6361 44.9072 43.0599C44.9072 45.4836 45.3992 47.8317 46.3074 50.0282C47.2156 52.149 48.5022 54.0805 50.1294 55.7089C51.7566 57.3374 53.6866 58.6629 55.8057 59.5339C58.0006 60.4807 60.3468 60.9352 62.7686 60.9352C65.1905 60.9352 67.5367 60.4428 69.7316 59.5339C71.8507 58.625 73.7807 57.3374 75.4079 55.7089C77.0351 54.0805 78.3595 52.149 79.2299 50.0282C80.176 47.8317 80.6301 45.4836 80.6301 43.0599C80.6679 40.674 80.176 38.3259 79.2299 36.1294Z"
        fill="#9EFE00" />
    </g>
    <path id="back-leg"
      d="M40.0209 42.0112V27.6723L25.0375 17.0952L24.893 16.9877C23.4362 15.8446 23.1167 13.747 24.1967 12.2172C25.2768 10.6873 27.3603 10.2865 28.9252 11.2768L29.0746 11.3764L45.5394 22.9994C46.4683 23.6552 47.0208 24.7218 47.0209 25.8588V42.0112C47.0209 43.944 45.4537 45.511 43.5209 45.5112C41.5879 45.5112 40.0209 43.9442 40.0209 42.0112Z"
      fill="#9EFE00" fill-opacity="0.5" />
    <path id="front-leg"
      d="M25.3445 11.182C26.9785 10.2673 29.0313 10.8035 30.0164 12.3715L30.1082 12.5258L39.8562 29.9389C40.4966 31.0832 40.4433 32.4895 39.7185 33.5824L30.7136 47.1615L30.6101 47.31C29.5099 48.7991 27.4226 49.1798 25.8621 48.1449C24.2512 47.0767 23.8115 44.9043 24.8797 43.2934L32.7039 31.4936L24.0007 15.9457L23.9168 15.7856C23.0955 14.1263 23.7109 12.0968 25.3445 11.182Z"
      fill="#9EFE00" />
  </g>
</svg>